<?xml version="1.0" encoding="utf-8" ?>
<svg baseProfile="full" height="120px" version="1.1" width="500px" xmlns="http://www.w3.org/2000/svg" xmlns:ev="http://www.w3.org/2001/xml-events" xmlns:xlink="http://www.w3.org/1999/xlink"><defs><linearGradient id="gradient_flow" x1="0%" x2="100%" y1="0%" y2="0%"><stop offset="0%" stop-color="#1e3a5f" /><stop offset="30%" stop-color="#3b82f6" /><stop offset="60%" stop-color="#8b5cf6" /><stop offset="100%" stop-color="#ec4899" /></linearGradient><linearGradient id="gradient_delta" x1="0%" x2="0%" y1="0%" y2="100%"><stop offset="0%" stop-color="#f472b6" /><stop offset="100%" stop-color="#ec4899" /></linearGradient><linearGradient id="gradient_text" x1="0%" x2="100%" y1="0%" y2="0%"><stop offset="0%" stop-color="#60a5fa" /><stop offset="50%" stop-color="#a78bfa" /><stop offset="100%" stop-color="#f472b6" /></linearGradient></defs><path d="M20,70 Q90.0,35.0 120,55 Q150.0,35.738848727196185 180,40 Q215.0,37.99658882433204 250,50 Q285.0,40.403705444409205 320,45 Q360.0,34.53300685257936 400,55 Q440.0,33.94558003753657 480,50 " fill="none" opacity="0.1" stroke="url(#gradient_flow)" stroke-linecap="round" stroke-width="12.0" /><path d="M20,72 Q90.0,39.364161653290715 120,57 Q150.0,39.12965888049148 180,42 Q215.0,39.57040070149932 250,52 Q285.0,40.41903904187064 320,47 Q360.0,34.19373417848304 400,57 Q440.0,34.67067250600436 480,52 " fill="none" opacity="0.15000000000000002" stroke="url(#gradient_flow)" stroke-linecap="round" stroke-width="10.8" /><path d="M20,74 Q90.0,43.51713978716028 120,59 Q150.0,41.88359783990768 180,44 Q215.0,40.46797123055672 250,54 Q285.0,40.12896006447893 320,49 Q360.0,34.105136872458246 400,59 Q440.0,36.050471970932286 480,54 " fill="none" opacity="0.2" stroke="url(#gradient_flow)" stroke-linecap="round" stroke-width="9.6" /><path d="M20,76 Q90.0,47.266615277019866 120,61 Q150.0,43.93331848361975 180,46 Q215.0,40.78777715283165 250,56 Q285.0,39.73803444685401 320,51 Q360.0,34.45378311148472 400,61 Q440.0,38.140379099005344 480,56 " fill="none" opacity="0.25" stroke="url(#gradient_flow)" stroke-linecap="round" stroke-width="8.4" /><path d="M20,78 Q90.0,50.45631268773781 120,63 Q150.0,45.274379414605455 180,48 Q215.0,40.67990520124724 250,58 Q285.0,39.459836453641174 320,53 Q360.0,35.38718340888387 400,63 Q440.0,40.932362754238774 480,58 " fill="none" opacity="0.30000000000000004" stroke="url(#gradient_flow)" stroke-linecap="round" stroke-width="7.2" /><path d="M20,80 Q90.0,52.97995989283243 120,65 Q150.0,45.965641697413766 180,50 Q215.0,40.33264529946632 250,60 Q285.0,39.497870726528205 320,55 Q360.0,37.000613939487195 400,65 Q440.0,44.355677395436864 480,60 " fill="none" opacity="0.35" stroke="url(#gradient_flow)" stroke-linecap="round" stroke-width="6.0" /><path d="M20,82 Q90.0,54.79078104702556 120,67 Q150.0,46.12401097457172 180,52 Q215.0,39.95567118378535 250,62 Q285.0,40.027393820691294 320,57 Q360.0,39.328605802694895 400,67 Q440.0,48.28318256468994 480,62 " fill="none" opacity="0.4" stroke="url(#gradient_flow)" stroke-linecap="round" stroke-width="4.800000000000001" /><path d="M20,84 Q90.0,55.90567493319099 120,69 Q150.0,45.91399463371186 180,54 Q215.0,39.761310872732054 250,64 Q285.0,41.179759058679224 320,59 Q360.0,42.34186046220879 400,69 Q440.0,52.54269996582323 480,64 " fill="none" opacity="0.45000000000000007" stroke="url(#gradient_flow)" stroke-linecap="round" stroke-width="3.5999999999999996" /><path d="M20,68 Q60,42 120,52 T220,42 T320,48 T420,45 T480,48" fill="none" stroke="url(#gradient_flow)" stroke-linecap="round" stroke-width="3.5" /><path d="M25,65 Q70,38 130,48 T235,38 T340,44 T480,42" fill="none" opacity="0.5" stroke="white" stroke-linecap="round" stroke-width="1.5" /><polygon fill="url(#gradient_delta)" opacity="0.7" points="100,41 95.1,51.5 104.9,51.5" /><circle cx="100" cy="38" fill="white" opacity="0.6" r="2" /><polygon fill="url(#gradient_delta)" opacity="0.85" points="200,33 193.7,46.5 206.3,46.5" /><circle cx="200" cy="30" fill="white" opacity="0.6" r="2" /><polygon fill="url(#gradient_delta)" opacity="0.9" points="340,38 334.4,50.0 345.6,50.0" /><circle cx="340" cy="35" fill="white" opacity="0.6" r="2" /><circle cx="20" cy="68" fill="#1e3a5f" opacity="0.15" r="14" /><circle cx="20" cy="68" fill="#1e3a5f" opacity="0.3" r="9" /><circle cx="20" cy="68" fill="#1e3a5f" opacity="0.7" r="5" /><circle cx="480" cy="48" fill="#ec4899" opacity="0.2" r="12" /><circle cx="480" cy="48" fill="#ec4899" opacity="0.5" r="7" /><circle cx="480" cy="48" fill="#ec4899" opacity="1.0" r="4" /><circle cx="45" cy="55" fill="white" opacity="0.3" r="2" /><circle cx="80" cy="40" fill="white" opacity="0.25" r="1.5" /><circle cx="140" cy="58" fill="white" opacity="0.2" r="1" /><circle cx="260" cy="38" fill="white" opacity="0.35" r="2.5" /><circle cx="300" cy="55" fill="white" opacity="0.2" r="1" /><circle cx="380" cy="38" fill="white" opacity="0.3" r="2" /><circle cx="420" cy="58" fill="white" opacity="0.25" r="1.5" /><circle cx="460" cy="40" fill="white" opacity="0.2" r="1" /><text fill="#3b82f6" font-family="Arial, sans-serif" font-size="42px" font-weight="bold" opacity="0.2" text-anchor="middle" x="251" y="96">DFVEdit</text><text fill="url(#gradient_text)" font-family="Arial, sans-serif" font-size="42px" font-weight="bold" text-anchor="middle" x="250" y="95">DFVEdit</text><text fill="white" font-family="Arial, sans-serif" font-size="42px" font-weight="bold" opacity="0.1" text-anchor="middle" x="250" y="95">DFVEdit</text><path d="M50,110 Q150,105 250,108 T450,106" fill="none" opacity="0.3" stroke="url(#gradient_flow)" stroke-linecap="round" stroke-width="1" /></svg>