<?xml version="1.0" encoding="utf-8" ?>
<svg baseProfile="full" height="100px" version="1.1" width="400px" xmlns="http://www.w3.org/2000/svg" xmlns:ev="http://www.w3.org/2001/xml-events" xmlns:xlink="http://www.w3.org/1999/xlink"><defs><linearGradient id="gradient_main" x1="0%" x2="100%" y1="0%" y2="0%"><stop offset="0%" stop-color="#667eea" /><stop offset="50%" stop-color="#764ba2" /><stop offset="100%" stop-color="#f093fb" /></linearGradient><linearGradient id="gradient_delta" x1="0%" x2="100%" y1="0%" y2="0%"><stop offset="0%" stop-color="#f5576c" /><stop offset="100%" stop-color="#f093fb" /></linearGradient><linearGradient id="gradient_text" x1="0%" x2="100%" y1="0%" y2="0%"><stop offset="0%" stop-color="#ffffff" /><stop offset="100%" stop-color="#e0e0ff" /></linearGradient></defs><rect fill="#0d1117" height="100%" rx="12" ry="12" width="100%" x="0" y="0" /><path d="M30,60 Q120,20 200,40 Q280,60 370,50" fill="none" opacity="0.15" stroke="url(#gradient_main)" stroke-linecap="round" stroke-width="12" /><path d="M30,60 Q120,20 200,40 Q280,60 370,50" fill="none" stroke="url(#gradient_main)" stroke-linecap="round" stroke-width="3" /><path d="M30,65 Q130,30 210,48 Q290,68 370,58" fill="none" opacity="0.4" stroke="url(#gradient_main)" stroke-linecap="round" stroke-width="1.5" /><circle cx="90" cy="50" fill="#f5576c" opacity="0.2" r="10" /><polygon fill="url(#gradient_delta)" points="90,44 85.2,53.6 94.8,53.6" /><circle cx="180" cy="38" fill="#f5576c" opacity="0.2" r="12" /><polygon fill="url(#gradient_delta)" points="180,30 173.6,42.8 186.4,42.8" /><circle cx="290" cy="52" fill="#f5576c" opacity="0.2" r="11" /><polygon fill="url(#gradient_delta)" points="290,45 284.4,56.2 295.6,56.2" /><circle cx="30" cy="60" fill="#667eea" opacity="0.1" r="16" /><circle cx="30" cy="60" fill="#667eea" opacity="0.2" r="10" /><circle cx="30" cy="60" fill="#667eea" opacity="0.8" r="5" /><circle cx="370" cy="50" fill="#f093fb" opacity="0.1" r="16" /><circle cx="370" cy="50" fill="#f093fb" opacity="0.2" r="10" /><circle cx="370" cy="50" fill="#f093fb" opacity="0.8" r="5" /><circle cx="55" cy="35" fill="white" opacity="0.3" r="1.5" /><circle cx="130" cy="65" fill="white" opacity="0.25" r="1" /><circle cx="250" cy="30" fill="white" opacity="0.4" r="2" /><circle cx="320" cy="70" fill="white" opacity="0.2" r="1" /><circle cx="345" cy="35" fill="white" opacity="0.3" r="1.5" /><text fill="#667eea" font-family="Arial, Helvetica, sans-serif" font-size="32px" font-weight="bold" opacity="0.3" text-anchor="middle" x="201" y="76">DFVEdit</text><text fill="url(#gradient_text)" font-family="Arial, Helvetica, sans-serif" font-size="32px" font-weight="bold" text-anchor="middle" x="200" y="75">DFVEdit</text></svg>